<?xml version="1.0" encoding="utf-8"?>
<!-- Generator: Adobe Illustrator 25.2.0, SVG Export Plug-In . SVG Version: 6.00 Build 0)  -->
<svg version="1.1" id="Calque_1" xmlns="http://www.w3.org/2000/svg" xmlns:xlink="http://www.w3.org/1999/xlink" x="0px" y="0px"
	 viewBox="0 0 841.89 595.28" style="enable-background:new 0 0 841.89 595.28;" xml:space="preserve">
<style type="text/css">
	.st0{fill:#FFFFFF;}
</style>
<path class="st0" d="M76.12,324.54c0-29.1,0-58.19,0-87.29c0-2.55,0.01-2.56,2.56-2.56c31.45,0,62.9-0.02,94.35,0.01
	c6.94,0.01,13.63,1.25,19.84,4.57c6.99,3.73,12.78,8.78,16.52,15.81c2.66,5,4.49,10.3,4.7,16.11c0.59,16.33,0.05,32.67,0.28,49.01
	c0.1,6.69-1.08,13.19-4.17,19.04c-2.83,5.38-6.89,9.91-11.88,13.61c-4.54,3.37-9.62,5.48-14.94,6.96c-2.71,0.75-5.69,0.77-8.54,0.79
	c-14.32,0.07-28.64,0.02-42.96,0.07c-1.52,0.01-1.98-0.42-1.98-1.98c0.06-19.35,0.03-38.71,0.06-58.06c0-0.58,0.02-0.83,0.78-1.15
	c0.84-0.34,0.95,0.03,1.36,0.41c3,3.18,5.79,6.13,8.72,9.15c6.84,7.05,13.93,13.86,20.86,20.82c0.86,0.87,1.71,1.25,2.91,1.2
	c4.43-0.2,8.87,0.23,13.31-0.42c2.47-0.36,5.46-2.92,6.13-5.36c0.48-1.76,0.72-3.56,0.72-5.42c-0.04-14.97-0.01-29.95-0.03-44.92
	c0-3.34-0.57-6.49-3.52-8.66c-2.29-1.68-4.97-1.86-7.63-1.93c-3.79-0.1-7.59,0.04-11.38-0.06c-1.43-0.04-1.71,0.48-1.7,1.8
	c0.05,9.55,0.03,19.09,0.01,28.64c0,0.54,0,1.21-0.49,1.38c-0.47,0.16-0.94-0.19-1.37-0.62c-4.12-4.09-8.17-8.25-12.33-12.3
	c-2.32-2.26-4.37-4.81-6.73-6.98c-4.01-3.67-7.69-7.66-11.61-11.4c-0.55-0.52-1.16-0.49-1.82-0.49c-6.21,0-12.42,0.06-18.63-0.04
	c-1.57-0.02-1.8,0.57-1.8,1.94c0.04,15.69,0.03,31.39,0.03,47.08c0,23.28-0.02,46.56,0.05,69.83c0.01,1.69-0.67,2.87-1.7,3.88
	c-4.17,4.07-8.31,8.17-12.36,12.36c-4.51,4.66-9.23,9.12-13.84,13.68c-0.44,0.44-0.86,1.2-1.45,0.96c-0.67-0.28-0.32-1.16-0.32-1.77
	c-0.02-29.23-0.01-58.46-0.01-87.68C76.11,324.54,76.12,324.54,76.12,324.54z"/>
<path class="st0" d="M326.51,334.19h-18.17v18.9h-12.11v-64.24c10.09,0,20.19-0.09,30.29-0.09
	C357.89,288.76,357.99,334.19,326.51,334.19z M308.34,323.08h18.17c15.51,0,15.42-22.76,0-22.76h-18.17V323.08z"/>
<path class="st0" d="M368.55,288.94v64.15h-11.1v-64.15H368.55z"/>
<path class="st0" d="M414.25,307.85h10.74v45.24h-10.55l-0.55-6.61c-2.57,5.32-9.64,7.89-14.69,7.98
	c-13.4,0.09-23.31-8.17-23.31-24.04c0-15.6,10.37-23.77,23.59-23.68c6.06,0,11.84,2.85,14.41,7.34L414.25,307.85z M387.08,330.43
	c0,8.63,5.97,13.77,13.4,13.77c17.62,0,17.62-27.44,0-27.44C393.05,316.75,387.08,321.8,387.08,330.43z"/>
<path class="st0" d="M478.12,307.85L450.5,372h-12.3l8.44-19.64l-18.08-44.51h13.03l6.88,19.55l4.31,12.76l4.68-12.48l8.26-19.82
	H478.12z"/>
<path class="st0" d="M493.54,334.46c0.73,5.6,5.6,9.64,13.49,9.64c4.13,0,9.54-1.56,12.11-4.22l7.16,7.07
	c-4.77,4.96-12.57,7.34-19.46,7.34c-15.6,0-24.87-9.64-24.87-24.14c0-13.77,9.36-23.68,24.04-23.68c15.14,0,24.6,9.36,22.85,27.99
	H493.54z M518.14,325.19c-0.73-5.87-5.32-8.81-11.75-8.81c-6.06,0-11.01,2.94-12.66,8.81H518.14z"/>
<path class="st0" d="M547.87,307.85l0.83,5.23c3.49-5.6,8.17-6.42,12.76-6.42c4.68,0,9.18,1.84,11.66,4.31l-5.05,9.73
	c-2.3-1.93-4.41-2.94-8.08-2.94c-5.87,0-11.29,3.12-11.29,11.47v23.86h-11.2v-45.24H547.87z"/>
<path class="st0" d="M581.74,288.85l43.23,53.14v-53.14h4.86v64.24h-1.93l-43.32-53.05v53.05h-4.96v-64.24H581.74z"/>
<path class="st0" d="M641.21,330.52c0-14.41,10.28-23.59,23.04-23.59c12.76,0,23.04,9.18,23.04,23.59
	c0,14.41-10.28,23.22-23.04,23.22C651.49,353.74,641.21,344.93,641.21,330.52z M682.88,330.52c0-11.75-8.35-19.36-18.63-19.36
	c-10.28,0-18.63,7.62-18.63,19.36c0,11.75,8.35,18.82,18.63,18.82C674.53,349.33,682.88,342.26,682.88,330.52z"/>
<path class="st0" d="M692.43,307.76h4.96l16.52,40.1l16.52-40.1h4.95l-19,45.34h-4.96L692.43,307.76z"/>
<path class="st0" d="M786.4,307.76c0,15.14,0,30.19,0,45.34h-4.5v-9.64c-4.41,7.07-11.2,10.37-18.54,10.37
	c-12.66,0-23.04-9.54-23.04-23.4c0-13.86,10.37-23.22,23.04-23.22c7.34,0,14.78,3.4,18.54,10.46v-9.91H786.4z M744.83,330.43
	c0,11.38,8.26,19,18.54,19c25.24,0,25.24-37.9,0-37.9C753.09,311.52,744.83,319.05,744.83,330.43z"/>
<rect x="257.11" y="281.65" class="st0" width="2.34" height="85"/>
</svg>
