<?xml version="1.0" encoding="utf-8"?>
<!-- Generator: Adobe Illustrator 24.1.2, SVG Export Plug-In . SVG Version: 6.00 Build 0)  -->
<svg version="1.1" id="Calque_1" xmlns="http://www.w3.org/2000/svg" xmlns:xlink="http://www.w3.org/1999/xlink" x="0px" y="0px"
	 viewBox="0 0 841.89 595.28" style="enable-background:new 0 0 841.89 595.28;" xml:space="preserve">
<style type="text/css">
	.st0{fill:#5BBB97;}
	.st1{fill:#FFFFFF;}
</style>
<path class="st0" d="M142.01,302.5c0-27.44,0-54.87,0-82.31c0-2.41,0.01-2.41,2.42-2.41c29.66,0,59.31-0.02,88.97,0.01
	c6.55,0.01,12.86,1.18,18.71,4.31c6.59,3.52,12.05,8.28,15.58,14.91c2.5,4.71,4.23,9.72,4.43,15.19c0.55,15.4,0.05,30.81,0.27,46.21
	c0.09,6.31-1.02,12.43-3.93,17.96c-2.67,5.07-6.5,9.34-11.2,12.84c-4.28,3.18-9.07,5.17-14.09,6.56c-2.56,0.71-5.36,0.73-8.05,0.74
	c-13.5,0.07-27.01,0.02-40.51,0.06c-1.43,0-1.87-0.39-1.87-1.87c0.05-18.25,0.03-36.5,0.06-54.75c0-0.55,0.02-0.79,0.73-1.08
	c0.79-0.32,0.89,0.03,1.28,0.39c2.83,3,5.46,5.78,8.22,8.63c6.45,6.65,13.13,13.07,19.67,19.63c0.81,0.82,1.61,1.18,2.75,1.13
	c4.18-0.19,8.36,0.21,12.55-0.4c2.33-0.34,5.15-2.75,5.78-5.06c0.45-1.66,0.68-3.36,0.67-5.11c-0.04-14.12-0.01-28.24-0.03-42.36
	c0-3.15-0.53-6.12-3.32-8.17c-2.16-1.58-4.68-1.76-7.2-1.82c-3.57-0.09-7.15,0.03-10.73-0.06c-1.34-0.03-1.61,0.45-1.61,1.69
	c0.05,9,0.03,18,0.01,27.01c0,0.51,0,1.14-0.46,1.3c-0.44,0.15-0.89-0.18-1.3-0.58c-3.88-3.86-7.71-7.78-11.63-11.6
	c-2.19-2.13-4.12-4.54-6.35-6.58c-3.78-3.46-7.25-7.22-10.95-10.75c-0.51-0.49-1.1-0.46-1.71-0.46c-5.86,0-11.72,0.05-17.57-0.03
	c-1.48-0.02-1.7,0.54-1.7,1.83c0.04,14.8,0.03,29.59,0.03,44.39c0,21.95-0.02,43.9,0.05,65.85c0.01,1.6-0.63,2.7-1.61,3.66
	c-3.93,3.84-7.84,7.7-11.66,11.65c-4.25,4.4-8.71,8.6-13.05,12.9c-0.42,0.41-0.81,1.13-1.36,0.9c-0.63-0.27-0.3-1.1-0.3-1.67
	c-0.01-27.56-0.01-55.12-0.01-82.68C142,302.5,142.01,302.5,142.01,302.5z"/>
<path class="st1" d="M319.77,286.6h-14.84v15.44h-9.89v-52.45c8.24,0,16.48-0.07,24.73-0.07C345.4,249.5,345.47,286.6,319.77,286.6z
	 M304.94,277.53h14.84c12.66,0,12.59-18.58,0-18.58h-14.84V277.53z"/>
<path class="st1" d="M354.1,249.65v52.38h-9.07v-52.38H354.1z"/>
<path class="st1" d="M391.41,265.09h8.77v36.94h-8.62l-0.45-5.39c-2.1,4.35-7.87,6.44-11.99,6.52
	c-10.94,0.07-19.03-6.67-19.03-19.63c0-12.74,8.47-19.41,19.26-19.33c4.95,0,9.67,2.32,11.77,6L391.41,265.09z M369.23,283.52
	c0,7.04,4.87,11.24,10.94,11.24c14.39,0,14.39-22.4,0-22.4C374.1,272.36,369.23,276.48,369.23,283.52z"/>
<path class="st1" d="M443.57,265.09l-22.55,52.38h-10.04l6.89-16.04l-14.76-36.34h10.64l5.62,15.96l3.52,10.42l3.82-10.19
	l6.74-16.18H443.57z"/>
<path class="st1" d="M456.16,286.82c0.6,4.57,4.57,7.87,11.02,7.87c3.37,0,7.79-1.27,9.89-3.45l5.84,5.77
	c-3.9,4.05-10.27,5.99-15.89,5.99c-12.74,0-20.31-7.87-20.31-19.71c0-11.24,7.64-19.33,19.63-19.33c12.36,0,20.08,7.64,18.66,22.86
	H456.16z M476.24,279.25c-0.6-4.8-4.34-7.19-9.59-7.19c-4.95,0-8.99,2.4-10.34,7.19H476.24z"/>
<path class="st1" d="M500.52,265.09l0.68,4.27c2.85-4.57,6.67-5.25,10.42-5.25c3.82,0,7.49,1.5,9.52,3.52l-4.12,7.94
	c-1.87-1.57-3.6-2.4-6.6-2.4c-4.8,0-9.21,2.55-9.21,9.37v19.48h-9.14v-36.94H500.52z"/>
<path class="st0" d="M528.17,249.58l35.29,43.39v-43.39h3.97v52.45h-1.57l-35.37-43.31v43.31h-4.05v-52.45H528.17z"/>
<path class="st0" d="M576.73,283.6c0-11.76,8.39-19.26,18.81-19.26c10.42,0,18.81,7.49,18.81,19.26c0,11.76-8.39,18.96-18.81,18.96
	C585.12,302.56,576.73,295.36,576.73,283.6z M610.75,283.6c0-9.59-6.82-15.81-15.21-15.81c-8.39,0-15.21,6.22-15.21,15.81
	c0,9.59,6.82,15.36,15.21,15.36C603.93,298.96,610.75,293.19,610.75,283.6z"/>
<path class="st0" d="M618.54,265.01h4.05l13.49,32.75l13.49-32.75h4.04l-15.51,37.02h-4.05L618.54,265.01z"/>
<path class="st0" d="M695.27,265.01c0,12.36,0,24.65,0,37.02h-3.67v-7.87c-3.6,5.77-9.14,8.47-15.14,8.47
	c-10.34,0-18.81-7.79-18.81-19.11c0-11.31,8.47-18.96,18.81-18.96c6,0,12.07,2.77,15.14,8.54v-8.09H695.27z M661.33,283.52
	c0,9.29,6.75,15.51,15.14,15.51c20.61,0,20.61-30.95,0-30.95C668.08,268.09,661.33,274.23,661.33,283.52z"/>
</svg>
