<?xml version="1.0" encoding="UTF-8"?><svg id="a" xmlns="http://www.w3.org/2000/svg" viewBox="0 0 676.55 142.07"><defs><style>.b{fill:#161616;}</style></defs><path class="b" d="M.08,71.17c0-23.05,0-46.09,0-69.14C.08,0,.08,0,2.11,0c24.91,0,49.82-.01,74.74,0,5.5,0,10.8,.99,15.71,3.62,5.54,2.95,10.13,6.95,13.09,12.53,2.1,3.96,3.56,8.16,3.72,12.76,.46,12.94,.04,25.88,.22,38.82,.08,5.3-.86,10.45-3.3,15.08-2.24,4.26-5.46,7.85-9.41,10.78-3.6,2.67-7.62,4.34-11.84,5.51-2.15,.6-4.5,.61-6.77,.62-11.34,.06-22.68,.01-34.03,.05-1.2,0-1.57-.33-1.57-1.57,.04-15.33,.03-30.66,.05-45.99,0-.46,.01-.66,.62-.91,.66-.27,.75,.02,1.08,.33,2.38,2.52,4.59,4.86,6.9,7.25,5.42,5.58,11.03,10.98,16.53,16.49,.68,.69,1.36,.99,2.31,.95,3.51-.16,7.02,.18,10.54-.34,1.95-.29,4.33-2.31,4.85-4.25,.38-1.39,.57-2.82,.57-4.29-.03-11.86,0-23.72-.02-35.58,0-2.65-.45-5.14-2.79-6.86-1.81-1.33-3.93-1.48-6.04-1.53-3-.08-6.01,.03-9.01-.05-1.13-.03-1.35,.38-1.35,1.42,.04,7.56,.02,15.12,0,22.68,0,.43,0,.96-.39,1.09s-.75-.15-1.09-.49c-3.26-3.24-6.47-6.53-9.77-9.74-1.84-1.79-3.46-3.81-5.33-5.53-3.18-2.91-6.09-6.07-9.2-9.03-.43-.41-.92-.39-1.44-.39-4.92,0-9.84,.05-14.76-.03-1.25-.02-1.43,.45-1.43,1.54,.03,12.43,.02,24.86,.02,37.29,0,18.44-.02,36.88,.04,55.31,0,1.34-.53,2.27-1.35,3.07-3.3,3.22-6.58,6.47-9.79,9.79-3.57,3.69-7.31,7.22-10.97,10.84-.35,.35-.68,.95-1.15,.76-.53-.22-.25-.92-.25-1.4-.01-23.15-.01-46.3-.01-69.45h.01Z"/><path class="b" d="M216.65,67.1h-18.17v18.9h-12.11V21.77c10.09,0,20.19-.09,30.29-.09,31.39,0,31.48,45.43,0,45.43Zm-18.17-11.1h18.17c15.51,0,15.42-22.76,0-22.76h-18.17v22.76Z"/><path class="b" d="M258.69,21.86V86.01h-11.1V21.86h11.1Z"/><path class="b" d="M304.39,40.76h10.74v45.24h-10.55l-.55-6.61c-2.57,5.32-9.64,7.89-14.69,7.98-13.4,.09-23.31-8.17-23.31-24.04s10.37-23.77,23.59-23.68c6.06,0,11.84,2.85,14.41,7.34l.37-6.24Zm-27.17,22.58c0,8.63,5.97,13.77,13.4,13.77,17.62,0,17.62-27.44,0-27.44-7.43,0-13.4,5.05-13.4,13.67Z"/><path class="b" d="M368.27,40.76l-27.62,64.15h-12.3l8.44-19.64-18.08-44.51h13.03l6.88,19.55,4.31,12.76,4.68-12.48,8.26-19.82h12.39Z"/><path class="b" d="M383.69,67.38c.73,5.6,5.6,9.64,13.49,9.64,4.13,0,9.54-1.56,12.11-4.22l7.16,7.07c-4.77,4.96-12.57,7.34-19.46,7.34-15.6,0-24.87-9.64-24.87-24.14s9.36-23.68,24.04-23.68,24.6,9.36,22.85,27.99h-35.33Zm24.6-9.27c-.73-5.87-5.32-8.81-11.75-8.81-6.06,0-11.01,2.94-12.66,8.81h24.41Z"/><path class="b" d="M438.02,40.76l.83,5.23c3.49-5.6,8.17-6.42,12.76-6.42s9.18,1.84,11.66,4.31l-5.05,9.73c-2.3-1.93-4.41-2.94-8.08-2.94-5.87,0-11.29,3.12-11.29,11.47v23.86h-11.2V40.76h10.37Z"/><path class="b" d="M471.89,21.77l43.23,53.14V21.77h4.86V86.01h-1.93l-43.32-53.05v53.05h-4.96V21.77h2.11Z"/><path class="b" d="M531.36,63.43c0-14.41,10.28-23.59,23.04-23.59s23.04,9.18,23.04,23.59-10.28,23.22-23.04,23.22-23.04-8.81-23.04-23.22Zm41.67,0c0-11.75-8.35-19.36-18.63-19.36s-18.63,7.62-18.63,19.36,8.35,18.82,18.63,18.82,18.63-7.07,18.63-18.82Z"/><path class="b" d="M582.57,40.67h4.96l16.52,40.1,16.52-40.1h4.95l-19,45.34h-4.96l-19-45.34Z"/><path class="b" d="M676.55,40.67v45.34h-4.5v-9.64c-4.41,7.07-11.2,10.37-18.54,10.37-12.66,0-23.04-9.54-23.04-23.4s10.37-23.22,23.04-23.22c7.34,0,14.78,3.4,18.54,10.46v-9.91h4.5Zm-41.57,22.67c0,11.38,8.26,19,18.54,19,25.24,0,25.24-37.9,0-37.9-10.28,0-18.54,7.52-18.54,18.9Z"/><rect class="b" x="147.25" y="14.57" width="2.34" height="85"/></svg>